<?xml version="1.0" encoding="UTF-8" standalone="no"?>
<svg
   version="1.1"
   x="0px"
   y="0px"
   viewBox="0 0 66 82.5"
   enable-background="new 0 0 66 66"
   xml:space="preserve"
   id="svg4"
   sodipodi:docname="noun-cloud-services-2366525.svg"
   inkscape:version="1.3.1 (9b9bdc1480, 2023-11-25, custom)"
   xmlns:inkscape="http://www.inkscape.org/namespaces/inkscape"
   xmlns:sodipodi="http://sodipodi.sourceforge.net/DTD/sodipodi-0.dtd"
   xmlns="http://www.w3.org/2000/svg"
   xmlns:svg="http://www.w3.org/2000/svg"><defs
     id="defs4" /><sodipodi:namedview
     id="namedview4"
     pagecolor="#ffffff"
     bordercolor="#000000"
     borderopacity="0.25"
     inkscape:showpageshadow="2"
     inkscape:pageopacity="0.0"
     inkscape:pagecheckerboard="0"
     inkscape:deskcolor="#d1d1d1"
     inkscape:zoom="13.454545"
     inkscape:cx="33"
     inkscape:cy="70.97973"
     inkscape:window-width="2560"
     inkscape:window-height="1310"
     inkscape:window-x="0"
     inkscape:window-y="0"
     inkscape:window-maximized="1"
     inkscape:current-layer="svg4" /><g
     id="g3"><path
       d="M22.0298,32.399c0.293,0.1348,0.6338,0.1206,0.9141-0.0405c0.2803-0.1597,0.4658-0.4448,0.499-0.7661   c0.4911-4.7866,4.5355-8.6328,9.5811-8.6328c5.1295,0,9.4975,4.0928,9.6328,9.3921c0.0098,0.3857,0.2412,0.731,0.5928,0.8882   c0.3516,0.1558,0.7627,0.0972,1.0566-0.1533c3.2838-2.8046,8.3457,0.1558,7.5195,4.4082c-0.0615,0.3179,0.0342,0.646,0.2568,0.8804   c0.2236,0.2344,0.5479,0.3477,0.8662,0.3003c7.0033-1.0016,9.1042,11.9497,0.2578,11.9497c-0.5527,0-1,0.4478-1,1s0.4473,1,1,1   c10.429,0,10.3372-15.3309,0.7031-15.9731c0.0137-2.9526-1.9717-5.644-4.9043-6.4185c-0.0006-0.0002-0.0013-0.0002-0.002-0.0004   V17.3125h5.513c0.4429,1.6376,1.9271,2.8525,3.7028,2.8525c2.123,0,3.8506-1.7275,3.8506-3.8506   c0-2.1235-1.7275-3.8511-3.8506-3.8511c-1.7744,0-3.2574,1.2131-3.7017,2.8491h-6.5142c-0.5527,0-1,0.4478-1,1v13.712   c-0.8665,0.0372-1.7314,0.2239-2.5117,0.5878c-0.2456-1.4285-0.7659-2.7839-1.5176-4.0212V5.8462h4.0269   c0.4421,1.6389,1.927,2.855,3.7036,2.855c2.123,0,3.8506-1.7275,3.8506-3.8506S52.8276,1,50.7046,1   c-1.7734,0-3.2557,1.2118-3.7009,2.8462h-5.0296c-0.5527,0-1,0.4478-1,1v19.2871c-1.9329-1.8127-4.4408-2.9257-7.1025-3.1231   v-5.5109c1.6362-0.444,2.8496-1.9272,2.8496-3.7019c0-2.123-1.7275-3.8506-3.8506-3.8506S29.02,9.6743,29.02,11.7974   c0,1.7754,1.2144,3.2592,2.8516,3.7025v5.5324c-2.5893,0.2549-4.9857,1.347-6.8467,3.1162V4.8462c0-0.5522-0.4473-1-1-1h-5.0286   C18.5511,2.2118,17.0688,1,15.2954,1c-2.123,0-3.8506,1.7275-3.8506,3.8506s1.7275,3.8506,3.8506,3.8506   c1.7766,0,3.2615-1.2161,3.7036-2.855h4.0259v20.8185c-0.6517,1.0919-1.12,2.2604-1.3809,3.4964   c-0.8712-0.2054-1.7689-0.217-2.6426-0.0602V16.3155c0-0.5522-0.4473-1-1-1h-6.5181c-0.4432-1.6375-1.9271-2.8521-3.7026-2.8521   c-2.123,0-3.8506,1.7275-3.8506,3.8511c0,2.123,1.7275,3.8506,3.8506,3.8506c1.7747,0,3.2579-1.2134,3.7019-2.8496h5.5188V30.806   c-2.2523,1.2241-3.5299,3.4452-3.501,5.8459c-3.7316,0.2531-7.2656,3.6678-7.2656,7.9985c0,4.397,3.5771,7.9746,7.9746,7.9746   c0.5527,0,1-0.4478,1-1s-0.4473-1-1-1c-3.2939,0-5.9746-2.6802-5.9746-5.9746c0-3.7375,3.4716-6.3662,6.2324-5.9751   c0.3184,0.0474,0.6436-0.0659,0.8662-0.3003c0.2227-0.2349,0.3184-0.5625,0.2568-0.8804   C14.8638,33.7472,18.7451,30.8888,22.0298,32.399z M58.2192,14.4634c1.0205,0,1.8506,0.8306,1.8506,1.8511   s-0.8301,1.8506-1.8506,1.8506s-1.8506-0.8301-1.8506-1.8506S57.1987,14.4634,58.2192,14.4634z M48.855,4.8412   C48.8602,3.8252,49.6873,3,50.7046,3c1.0205,0,1.8506,0.8301,1.8506,1.8506s-0.8301,1.8506-1.8506,1.8506   c-1.0193,0-1.8483-0.8282-1.8502-1.847c0-0.0028,0.0016-0.0051,0.0016-0.0079C48.856,4.8444,48.855,4.843,48.855,4.8412z    M31.02,11.7974c0-1.0205,0.8301-1.8506,1.8506-1.8506s1.8506,0.8301,1.8506,1.8506s-0.8301,1.8506-1.8506,1.8506   S31.02,12.8179,31.02,11.7974z M15.2954,6.7012c-1.0205,0-1.8506-0.8301-1.8506-1.8506S14.2749,3,15.2954,3   c1.0173,0,1.8444,0.8251,1.8496,1.8412c0,0.0018-0.001,0.0032-0.001,0.005c0,0.0028,0.0016,0.0051,0.0016,0.0079   C17.1437,5.873,16.3147,6.7012,15.2954,6.7012z M9.63,16.328c-0.0075,1.0142-0.8334,1.837-1.8492,1.837   c-1.0205,0-1.8506-0.8301-1.8506-1.8506s0.8301-1.8511,1.8506-1.8511c1.0163,0,1.8425,0.8241,1.8494,1.8388   c-0.0001,0.0047-0.0027,0.0085-0.0027,0.0132C9.6274,16.3199,9.6299,16.3236,9.63,16.328z"
       id="path1" /><path
       d="M19.4897,58.8877V64c0,0.5522,0.4473,1,1,1H47.731c0.5527,0,1-0.4478,1-1v-5.1123c0-5.7246-4.6572-10.3818-10.3818-10.3818   h-8.4785C24.147,48.5059,19.4897,53.1631,19.4897,58.8877z M29.8706,50.5059h8.4785c4.6221,0,8.3818,3.7603,8.3818,8.3818V63   h-4.9541v-3.7749c0-0.5522-0.4473-1-1-1s-1,0.4478-1,1V63h-11.334v-3.7749c0-0.5522-0.4473-1-1-1s-1,0.4478-1,1V63h-4.9531v-4.1123   C21.4897,54.2661,25.2495,50.5059,29.8706,50.5059z"
       id="path2" /><path
       d="M40.3169,39.7105c0-3.6206-2.9453-6.5659-6.5654-6.5659c-3.6211,0-6.5664,2.9453-6.5664,6.5659   s2.9453,6.5659,6.5664,6.5659C37.3716,46.2764,40.3169,43.3311,40.3169,39.7105z M29.1851,39.7105   c0-2.5176,2.0488-4.5659,4.5664-4.5659s4.5654,2.0483,4.5654,4.5659s-2.0479,4.5659-4.5654,4.5659S29.1851,42.2281,29.1851,39.7105   z"
       id="path3" /></g></svg>
