<?xml version="1.0" encoding="UTF-8" standalone="no"?>
<svg
   version="1.1"
   x="0px"
   y="0px"
   viewBox="0 0 2000 2500"
   style="enable-background:new 0 0 2000 2000;"
   xml:space="preserve"
   id="svg3"
   sodipodi:docname="sts-idea-logo.svg"
   inkscape:version="1.3.1 (9b9bdc1480, 2023-11-25, custom)"
   xmlns:inkscape="http://www.inkscape.org/namespaces/inkscape"
   xmlns:sodipodi="http://sodipodi.sourceforge.net/DTD/sodipodi-0.dtd"
   xmlns="http://www.w3.org/2000/svg"
   xmlns:svg="http://www.w3.org/2000/svg"><defs
     id="defs3" /><sodipodi:namedview
     id="namedview3"
     pagecolor="#ffffff"
     bordercolor="#000000"
     borderopacity="0.25"
     inkscape:showpageshadow="2"
     inkscape:pageopacity="0.0"
     inkscape:pagecheckerboard="0"
     inkscape:deskcolor="#d1d1d1"
     inkscape:zoom="0.3"
     inkscape:cx="1000"
     inkscape:cy="1250"
     inkscape:window-width="1920"
     inkscape:window-height="950"
     inkscape:window-x="0"
     inkscape:window-y="0"
     inkscape:window-maximized="1"
     inkscape:current-layer="svg3" /><g
     id="g2"><path
       d="M1482.36,1173.14l-44.79-4.58c-3.89-0.4-7.06-3.17-8.26-7.19c-6.23-21.12-30.25-56.67-51.43-88.04   c-9.64-14.26-18.65-27.62-23.59-36.21c59.36-74.7,93.55-167.86,93.55-265.12c0-117.54-47.18-227.16-132.26-308.43   c-76.63-73.36-174.8-114.26-280.07-117.26c-9-0.27-18-0.27-27.27,0v27.27l-0.27,206.16h13.91c27.27,0,49.36,22.09,49.36,49.36   c0,27-21.54,48.81-48.27,49.63h-14.73V757h-64.63c-11.18-28.91-39-49.63-71.72-49.63c-32.72,0-60.54,20.73-71.45,49.63H622.91   h-27.27c-0.27,9-0.27,18.27,0,27.27c2.71,93.26,36.38,182.04,93.75,253.8c-5.36,8.76-13.68,20.96-22.57,33.98   c-21.92,32.01-46.74,68.31-52.92,89.29c-1.2,4.05-4.37,6.82-8.23,7.22l-44.82,4.58c-18.96,1.94-33.24,17.76-33.24,36.8v139.55   c0,19.01,14.27,34.83,33.24,36.78l43.52,4.47c3.83,0.4,7.06,3.25,8.2,7.3c8.63,30.41,20.72,59.92,35.9,87.64   c2.02,3.7,1.76,7.91-0.72,10.95l-27.32,33.53c-12.01,14.75-10.92,36.06,2.53,49.51l98.64,98.64c13.48,13.53,34.73,14.65,49.53,2.56   l32.84-26.71c3.06-2.5,7.27-2.8,11-0.72c27.99,15.61,57.76,28.02,88.52,36.88c4.02,1.15,6.84,4.37,7.24,8.23l4.31,41.89   c1.89,18.96,17.71,33.26,36.78,33.26h139.55c19.07,0,34.89-14.3,36.78-33.24l4.31-41.94c0.4-3.83,3.22-7.06,7.24-8.2   c30.76-8.87,60.53-21.28,88.52-36.86c3.73-2.1,7.94-1.78,11,0.69l32.84,26.71c14.78,12.04,36.09,10.97,49.51-2.53l98.67-98.67   c13.45-13.45,14.54-34.75,2.53-49.51l-27.32-33.53c-2.48-3.04-2.74-7.24-0.75-10.92c15.21-27.75,27.3-57.26,35.93-87.67   c1.15-4.05,4.37-6.9,8.23-7.3l43.49-4.47c18.96-1.94,33.24-17.76,33.24-36.78v-139.55   C1515.59,1190.9,1501.32,1175.08,1482.36,1173.14z M1035.52,704.63c35.72-6.54,62.99-37.9,62.99-75.54s-27.27-69-63.27-75.27   l0.27-180.26c97.9,3.27,189.53,41.45,261.25,109.63c75.98,72.6,119.21,169.37,123.05,273.78h-203.19v13.64h-0.05   c0,27.3-22.18,49.49-49.48,49.49c-27.25,0-49.42-22.13-49.49-49.36V757h-82.08V704.63z M1035.52,874.8v-90.54h56.18   c6.48,35.82,37.73,63.12,75.4,63.12c37.65,0,68.9-27.31,75.37-63.13h177.37c-3.84,122.77-64.23,238.06-163.98,310.62   c-56.18,40.91-94.08,98.99-106.9,163.62l-7.91,40.36c-0.82,4.09-4.36,7.09-8.73,7.09h-97.08v-304.88h0.27V973.8h-0.27v-0.27h-1.64   c-26.45-0.82-47.72-22.63-47.72-49.36C985.88,896.89,1007.97,874.8,1035.52,874.8z M1140.65,1349.89H902.57   c-11.77,0-21.33,9.56-21.33,21.33v80.1c-51.36-41.94-81.52-104.38-81.52-171.61c0-37.45,9.86-73.69,27.67-106.22   c19.82,27.31,33.71,57.86,40.14,90.18l6.55,34.36c5.18,25.91,22.36,35.18,36.81,35.18h221.44c17.45,0,32.18-12.27,35.45-29.18   l7.91-40.36c6.45-32.55,20.29-63.15,40.02-90.36c17.89,32.57,27.79,68.88,27.79,106.4c0,66.91-30.26,129.46-81.52,171.44v-79.94   C1161.98,1359.45,1152.42,1349.89,1140.65,1349.89z M908.5,1488.29v-111.13h226.21v111.13H908.5z M822.81,784.27v-3.27   c1.64-25.63,22.91-46.36,49.09-46.36c27.27,0,49.63,22.36,49.63,49.63h86.72v68.45c-28.91,10.91-49.63,38.72-49.63,71.45   c0,32.72,20.73,60.54,49.36,71.45v310.34h-97.08c-6,0-8.73-7.09-9.82-13.09l-6.82-34.36c-12.54-64.36-51-122.72-107.72-164.17   c-99.81-73.08-159.8-187.62-163.35-310.06H822.81z M1488.32,1349.49c0,5.01-3.76,9.13-8.74,9.67l-43.46,4.47   c-15.05,1.49-27.51,12.09-31.74,26.95c-8.04,28.47-19.36,56.06-33.61,82.05c-7.3,13.42-5.91,29.59,3.54,41.2l27.32,33.53   c3.17,3.89,2.88,9.48-0.67,13.02l-98.7,98.7c-3.49,3.46-9.08,3.81-13,0.64l-32.84-26.71c-11.72-9.56-28.02-10.87-41.46-3.38   c-26.18,14.59-54.03,26.21-82.82,34.49c-14.78,4.26-25.3,16.7-26.79,31.66l-4.31,41.94c-0.51,4.95-4.66,8.71-9.67,8.71H951.83   c-5.01,0-9.16-3.76-9.67-8.73l-4.31-41.89c-1.49-14.99-12.01-27.43-26.79-31.69c-28.79-8.28-56.64-19.89-82.82-34.51   c-13.48-7.48-29.77-6.15-41.46,3.41l-32.84,26.71c-3.91,3.17-9.51,2.85-13.02-0.67l-98.67-98.67c-3.54-3.54-3.83-9.13-0.67-13.02   l27.32-33.53c9.45-11.61,10.84-27.78,3.52-41.23c-14.22-25.97-25.54-53.56-33.58-82.02c-4.23-14.86-16.7-25.46-31.72-26.95   l-43.49-4.47c-4.98-0.53-8.74-4.66-8.74-9.67v-139.55c0-5.01,3.76-9.16,8.74-9.69l44.85-4.58c14.86-1.54,27.24-11.96,31.58-26.58   c4.98-16.88,30.57-54.33,49.27-81.65c7.07-10.35,13.4-19.65,18.6-27.67c18.88,20.61,39.49,39.85,62.52,56.65   c14.17,10.33,26.9,21.89,38.36,34.3c-23.59,38.89-36.37,83.24-36.37,128.99c0,82.71,40.68,158.93,108.79,205.51v9   c0,11.77,9.56,21.33,21.33,21.33h20.15l3.47,19.36c8.31,46.23,48.44,79.79,95.42,79.79s87.11-33.56,95.42-79.79l3.47-19.36h20.15   c11.77,0,21.33-9.56,21.33-21.33v-8.74c68.1-46.55,108.79-123.32,108.79-205.78c0-45.82-12.84-90.22-36.52-129.14   c11.28-12.19,23.8-23.52,37.7-33.61c23.47-17.12,44.47-36.85,63.72-58c5.26,8.35,12.03,18.4,19.6,29.64   c18.08,26.76,42.85,63.41,47.88,80.51c4.34,14.59,16.72,25.01,31.61,26.55l44.82,4.58c4.98,0.53,8.74,4.69,8.74,9.69V1349.49z    M1091.99,1520.04l-1.81,10.04c-5.97,33.24-34.81,57.36-68.58,57.36s-62.61-24.13-68.58-57.36l-1.81-10.04H1091.99z"
       id="path1" /><path
       d="M711.78,661.2c1.64-25.63,22.91-46.36,49.09-46.36c27.27,0,49.63,22.36,49.63,49.63h86.72h27.27V637.2v-52.36   c35.72-6.54,62.99-37.9,62.99-75.54s-27.27-69-63.27-75.27l0.27-180.26v-27.27c-9-0.27-18-0.27-27.27,0   c-2.46,0-5.18,0.27-7.64,0.27C670.05,237.14,492.25,417.67,484.61,637.2c-0.27,9-0.27,18.27,0,27.27h27.54h199.62V661.2z    M689.41,637.2H511.88c7.63-205.07,173.99-373.33,379.06-383.42c2.18,0,4.09-0.27,6.27,0l-0.27,206.16h13.91   c27.27,0,49.36,22.09,49.36,49.36c0,27-21.54,48.81-48.27,49.63h-14.73v78.27h-64.63c-11.18-28.91-39-49.63-71.72-49.63   C728.14,587.57,700.32,608.29,689.41,637.2z"
       id="path2" /></g><path
     id="text2"
     d="m 29.052734,2014.0117 c -0.105619,0.082 -0.205269,0.1713 -0.310546,0.2539 h 0.185546 c 0.04235,-0.084 0.08224,-0.1696 0.125,-0.2539 z m -0.955078,0.7813 c -0.08503,0.068 -0.167126,0.139 -0.251953,0.207 h 0.183594 z" /><path
     id="text3"
     d="m 24.679688,2017.5957 c -0.06265,0.053 -0.128835,0.1027 -0.191407,0.1563 0.06418,-0.028 0.127289,-0.059 0.191407,-0.088 z" /></svg>
