<?xml version="1.0" standalone="no"?>
<!DOCTYPE svg PUBLIC "-//W3C//DTD SVG 20010904//EN"
 "http://www.w3.org/TR/2001/REC-SVG-20010904/DTD/svg10.dtd">
<svg version="1.0" xmlns="http://www.w3.org/2000/svg"
 width="880.000000pt" height="754.000000pt" viewBox="0 0 880.000000 754.000000"
 preserveAspectRatio="xMidYMid meet">

<g transform="translate(0.000000,754.000000) scale(0.100000,-0.100000)"
fill="#000000" stroke="none">
<path d="M3700 6449 c-448 -259 -1025 -592 -1283 -741 l-467 -270 2 -1481 3
-1480 1260 -729 c693 -401 1270 -734 1281 -740 18 -9 187 86 1235 692 668 386
1244 720 1282 742 l67 40 0 1478 0 1477 -662 383 c-365 211 -941 545 -1282
742 -340 197 -619 358 -620 358 -1 0 -368 -212 -816 -471z m1317 -702 c263
-152 660 -381 883 -509 l405 -234 3 -428 c1 -272 -1 -427 -7 -424 -38 13
-2518 1454 -2513 1460 25 25 720 418 734 414 9 -2 232 -128 495 -279z m-1845
-586 c46 -27 403 -233 793 -458 1063 -613 1602 -924 1990 -1149 l350 -203 0
-216 0 -217 -285 -164 c-1185 -686 -1487 -859 -1505 -859 -11 0 -419 232 -907
514 l-888 514 0 423 c0 233 2 424 5 424 3 0 26 -13 52 -29 27 -16 428 -248
892 -516 737 -424 847 -485 865 -475 116 62 650 377 653 385 1 6 -14 19 -35
31 -20 11 -244 140 -497 287 -253 146 -791 457 -1195 690 l-735 425 -3 215 -2
215 182 106 c101 57 184 105 185 105 1 1 40 -21 85 -48z"/>
</g>
</svg>
