<?xml version="1.0" encoding="UTF-8" standalone="no"?>
<svg
   width="240px"
   height="64px"
   viewBox="0 0 240 64"
   version="1.1"
   id="svg1"
   sodipodi:docname="singletwin-solutions-banner.svg"
   inkscape:version="1.3.2 (1:1.3.2+202404261509+091e20ef0f)"
   xmlns:inkscape="http://www.inkscape.org/namespaces/inkscape"
   xmlns:sodipodi="http://sodipodi.sourceforge.net/DTD/sodipodi-0.dtd"
   xmlns:xlink="http://www.w3.org/1999/xlink"
   xmlns="http://www.w3.org/2000/svg"
   xmlns:svg="http://www.w3.org/2000/svg"
   xmlns:rdf="http://www.w3.org/1999/02/22-rdf-syntax-ns#"
   xmlns:cc="http://creativecommons.org/ns#"
   xmlns:dc="http://purl.org/dc/elements/1.1/">
  <defs
     id="defs1">
    <linearGradient
       id="linearGradient9"
       inkscape:collect="always">
      <stop
         style="stop-color:#0079c1;stop-opacity:1;"
         offset="0"
         id="stop9" />
      <stop
         style="stop-color:#0079c1;stop-opacity:0;"
         offset="1"
         id="stop10" />
    </linearGradient>
    <linearGradient
       id="linearGradient7"
       inkscape:collect="always">
      <stop
         style="stop-color:#000000;stop-opacity:1;"
         offset="0"
         id="stop7" />
      <stop
         style="stop-color:#000000;stop-opacity:0;"
         offset="1"
         id="stop8" />
    </linearGradient>
    <rect
       x="0.47298729"
       y="14.190148"
       width="126.03443"
       height="47.092691"
       id="rect7" />
    <linearGradient
       inkscape:collect="always"
       xlink:href="#linearGradient7"
       id="linearGradient8"
       x1="27.72102"
       y1="33.982515"
       x2="98.646111"
       y2="33.982515"
       gradientUnits="userSpaceOnUse" />
    <rect
       x="0.47298729"
       y="14.190148"
       width="126.03443"
       height="47.092691"
       id="rect8" />
    <linearGradient
       inkscape:collect="always"
       xlink:href="#linearGradient9"
       id="linearGradient10"
       x1="11.680224"
       y1="12.021324"
       x2="114.82023"
       y2="12.021324"
       gradientUnits="userSpaceOnUse" />
  </defs>
  <sodipodi:namedview
     id="namedview1"
     pagecolor="#ffffff"
     bordercolor="#000000"
     borderopacity="0.25"
     inkscape:showpageshadow="2"
     inkscape:pageopacity="0.0"
     inkscape:pagecheckerboard="0"
     inkscape:deskcolor="#d1d1d1"
     inkscape:zoom="7.375"
     inkscape:cx="120"
     inkscape:cy="31.932203"
     inkscape:window-width="2560"
     inkscape:window-height="1314"
     inkscape:window-x="0"
     inkscape:window-y="0"
     inkscape:window-maximized="1"
     inkscape:current-layer="logo"
     showguides="true">
    <sodipodi:guide
       position="154.65996,51.612818"
       orientation="0,-1"
       id="guide2"
       inkscape:locked="false" />
    <sodipodi:guide
       position="185.49523,10.852754"
       orientation="0,-1"
       id="guide3"
       inkscape:locked="false" />
    <sodipodi:guide
       position="239.45763,60.881356"
       orientation="1,0"
       id="guide4"
       inkscape:locked="false" />
    <sodipodi:guide
       position="131.52542,70.101695"
       orientation="1,0"
       id="guide5"
       inkscape:locked="false" />
    <sodipodi:guide
       position="126.23729,65.355932"
       orientation="1,0"
       id="guide6"
       inkscape:locked="false" />
    <sodipodi:guide
       position="0.54237288,79.59322"
       orientation="1,0"
       id="guide7"
       inkscape:locked="false" />
  </sodipodi:namedview>
  <title
     id="title1">logo</title>
  <g
     id="Page-1"
     stroke="none"
     stroke-width="1"
     fill="none"
     fill-rule="evenodd">
    <g
       id="logo"
       transform="translate(2.000000, 0.000000)"
       fill-rule="nonzero">
      <path
         id="SingleTwin"
         fill="#2f2f41"
         d="m -1.104,61.024 c 3.68,0 6.584,-0.752 8.712,-2.256 2.128,-1.504 3.512,-3.36 4.152,-5.568 0.32,-1.12 0.536,-2.4 0.648,-3.84 0.112,-1.44 0.168,-2.92 0.168,-4.44 v 0 -21.816 c 0,-1.184 0.088,-2.056 0.264,-2.616 0.176,-0.56 0.528,-0.944 1.056,-1.152 0.528,-0.208 1.288,-0.328 2.28,-0.36 v 0 -0.96 c -0.896,0.032 -2.024,0.064 -3.384,0.096 -1.36,0.032 -2.76,0.048 -4.2,0.048 -1.44,0 -2.808,-0.016 -4.104,-0.048 C 3.192,18.08 2.144,18.048 1.344,18.016 v 0 0.96 c 1.024,0.032 1.792,0.152 2.304,0.36 0.512,0.208 0.856,0.592 1.032,1.152 0.176,0.56 0.264,1.432 0.264,2.616 v 0 26.304 c 0,2.72 -0.24,4.832 -0.72,6.336 -0.48,1.504 -1.168,2.568 -2.064,3.192 -0.896,0.624 -1.984,1 -3.264,1.128 v 0 z m 31.459125,-8.352 c 1.792,0 3.328,-0.368 4.608,-1.104 1.28,-0.736 2.336,-1.68 3.168,-2.832 0.832,-1.152 1.44,-2.336 1.824,-3.552 v 0 l -0.864,-0.288 c -0.992,1.6 -2.056,2.64 -3.192,3.12 -1.136,0.48 -2.184,0.72 -3.144,0.72 -0.992,0 -1.968,-0.312 -2.928,-0.936 -0.96,-0.624 -1.752,-1.624 -2.376,-3 -0.624,-1.376 -0.936,-3.168 -0.936,-5.376 0,-0.448 0.008,-0.88 0.024,-1.296 0.016,-0.416 0.04,-0.816 0.072,-1.2 l -0.01813,0.24 h 13.458125 c 0,-3.636148 -0.741838,-6.29307 -2.225514,-7.970765 L 37.651125,29.008 c -1.6,-1.664 -3.808,-2.496 -6.624,-2.496 -2.272,0 -4.296,0.488 -6.072,1.464 -1.776,0.976 -3.168,2.456 -4.176,4.44 -1.008,1.984 -1.512,4.464 -1.512,7.44 0,2.912 0.472,5.312 1.416,7.2 0.944,1.888 2.248,3.296 3.912,4.224 1.664,0.928 3.584,1.392 5.76,1.392 z M 26.489764,36.219524 c 0.178994,-3.0449 0.643448,-5.240741 1.393361,-6.587524 0.784,-1.408 1.736,-2.112 2.856,-2.112 0.8,0 1.44,0.4 1.92,1.2 0.48,0.8 0.832,1.864 1.056,3.192 0.224,1.328 0.32,2.776 0.288,4.344 v 0 H 26.487 Z M 69.724728,52 v -1.008 c -0.544,-0.192 -1.007999,-0.512 -1.391999,-0.96 -0.384,-0.448 -0.752,-0.96 -1.104,-1.536 v 0 L 59.172,35.023 62.236728,31.84 c 0.896,-0.868 1.779751,-1.60125 2.651251,-2.19975 L 65.260728,29.392 c 0.992001,-0.64 1.984,-1.056 2.976,-1.248 v 0 -0.96 c -0.384,0.032 -0.896,0.056 -1.536,0.072 -0.64,0.016 -1.319999,0.032 -2.039999,0.048 -0.720001,0.016 -1.400001,0.024 -2.040001,0.024 -0.735999,0 -1.632,-0.016 -2.687999,-0.048 -1.056001,-0.032 -2.032001,-0.064 -2.928001,-0.096 v 0 0.96 c 1.120001,0.032 2.024,0.288 2.712001,0.768 0.687999,0.48 1.031999,1.12 1.031999,1.92 0,0.8 -0.543999,1.712 -1.632,2.736 v 0 l -3.648,3.552 c -0.416,0.448 -0.872,0.752 -1.367999,0.912 -0.496001,0.16 -1.080001,0.272 -1.752001,0.336 L 52.588,38.342 52.588729,14.416 c -0.826667,0.186667 -1.72,0.334444 -2.68,0.443333 L 49.324728,14.92 c -1.183999,0.112 -2.432,0.168 -3.744,0.168 -0.96,0 -1.952,-0.048 -2.976,-0.144 v 0 1.008 c 1.184,0 1.992,0.344 2.424,1.032 0.432001,0.688 0.648001,1.752 0.648001,3.192 v 0 27.36 c 0,1.344 -0.232001,2.256 -0.696001,2.736 -0.464,0.48 -1.256,0.72 -2.376,0.72 v 0 V 52 c 0.64,-0.032 1.592,-0.072 2.856001,-0.12 1.263999,-0.048 2.519999,-0.072 3.768,-0.072 1.215999,0 2.407999,0.024 3.576,0.072 1.168,0.048 2.055999,0.088 2.663999,0.12 v 0 -1.008 c -1.056,0 -1.8,-0.24 -2.232,-0.72 -0.431999,-0.48 -0.647999,-1.392 -0.647999,-2.736 v 0 l -7.29e-4,-8.238 0.01395,1.22e-4 c 0.409796,0.03755 0.758367,0.111837 1.045714,0.222858 l 0.165061,0.07102 c 0.368,0.176 0.744,0.568 1.128,1.176 v 0 l 4.752,8.592 c 0.288,0.48 0.320001,0.872 0.096,1.176 -0.224,0.304 -0.656,0.456 -1.296,0.456 v 0 V 52 c 0.576,-0.032 1.456001,-0.072 2.64,-0.12 1.184001,-0.048 2.368,-0.072 3.552001,-0.072 0.959999,0 1.919999,0.024 2.879999,0.072 0.96,0.048 1.68,0.088 2.16,0.12 z m 6.499131,9.024 c 0.928,0 1.744,-0.104 2.448,-0.312 0.704,-0.208 1.28,-0.504 1.728,-0.888 0.8,-0.64 1.504,-1.776 2.112,-3.408 v 0 l 1.824,-5.136 6.768,-19.008 c 0.512,-1.408 1.04,-2.408 1.584,-3 0.544,-0.592 1.12,-0.968 1.728,-1.128 v 0 -0.96 c -0.416,0.032 -0.976,0.064 -1.68,0.096 -0.704,0.032 -1.376,0.048 -2.016,0.048 -0.64,0 -1.392,-0.016 -2.256,-0.048 -0.864,-0.032 -1.664,-0.064 -2.4,-0.096 v 0 0.96 c 1.536,0.128 2.608,0.792 3.216,1.992 0.608,1.2 0.464,3.096 -0.432,5.688 v 0 L 85.55,45.046 79.679859,30.88 c -0.354461,-0.827077 -0.45671,-1.429207 -0.306745,-1.806391 l 0.04274,-0.08961 c 0.208,-0.368 0.592,-0.592 1.152,-0.672 0.56,-0.08 1.16,-0.12 1.8,-0.12 v 0 -1.008 c -0.96,0.064 -1.984,0.128 -3.072,0.192 -1.088,0.064 -2.288,0.096 -3.6,0.096 -1.056,0 -2.152,-0.024 -3.288,-0.072 -1.136,-0.048 -2.232,-0.12 -3.288,-0.216 v 0 1.008 c 0.384,0 0.84,0.136 1.368,0.408 0.528,0.272 1.064,1.032 1.608,2.28 v 0 L 82.285,54.018 81.503859,56.32 c -0.443076,1.211077 -0.995219,2.122225 -1.656426,2.733444 L 79.679859,59.2 c -0.736,0.608 -1.584,0.912 -2.544,0.912 v 0 h -0.528 c -0.224,0 -0.416,-0.016 -0.576,-0.048 0.8,-0.288 1.4,-0.72 1.8,-1.296 0.4,-0.576 0.6,-1.184 0.6,-1.824 0,-0.992 -0.336,-1.744 -1.008,-2.256 -0.672,-0.512 -1.536,-0.768 -2.592,-0.768 -1.152,0 -2.08,0.296 -2.784,0.888 -0.704,0.592 -1.056,1.384 -1.056,2.376 0,0.896 0.272,1.632 0.816,2.208 0.544,0.576 1.224,0.992 2.04,1.248 0.816,0.256 1.608,0.384 2.376,0.384 z M 108.71983,52 v -1.008 c -1.12,0 -1.912,-0.24 -2.376,-0.72 -0.464,-0.48 -0.696,-1.392 -0.696,-2.736 v 0 -33.12 c -0.992,0.224 -2.08,0.392 -3.264,0.504 -1.184,0.112 -2.432,0.168 -3.744,0.168 -0.96,0 -1.952,-0.048 -2.976,-0.144 v 0 1.008 c 1.184,0 1.992,0.344 2.424,1.032 0.432,0.688 0.648,1.752 0.648,3.192 v 0 27.36 c 0,1.344 -0.232,2.256 -0.696,2.736 -0.464,0.48 -1.256,0.72 -2.376,0.72 v 0 V 52 c 0.64,-0.032 1.592,-0.072 2.856,-0.12 1.264,-0.048 2.52,-0.072 3.768,-0.072 1.248,0 2.48,0.024 3.696,0.072 1.216,0.048 2.128,0.088 2.736,0.12 z m 14.93755,0 v -1.008 c -1.12,0 -1.912,-0.24 -2.376,-0.72 -0.464,-0.48 -0.696,-1.392 -0.696,-2.736 v 0 -33.12 c -0.992,0.224 -2.08,0.392 -3.264,0.504 -1.184,0.112 -2.432,0.168 -3.744,0.168 -0.96,0 -1.952,-0.048 -2.976,-0.144 v 0 1.008 c 1.184,0 1.992,0.344 2.424,1.032 0.432,0.688 0.648,1.752 0.648,3.192 v 0 27.36 c 0,1.344 -0.232,2.256 -0.696,2.736 -0.464,0.48 -1.256,0.72 -2.376,0.72 v 0 V 52 c 0.64,-0.032 1.592,-0.072 2.856,-0.12 1.264,-0.048 2.52,-0.072 3.768,-0.072 1.248,0 2.48,0.024 3.696,0.072 1.216,0.048 2.128,0.088 2.736,0.12 z"
         style="display:none" />
      <path
         id="Solutions"
         fill="#e5261f"
         d="m 141.16,52.672 c 2.144,0 4.112,-0.344 5.904,-1.032 1.792,-0.688 3.24,-1.72 4.344,-3.096 1.104,-1.376 1.656,-3.12 1.656,-5.232 0,-1.728 -0.368,-3.216 -1.104,-4.464 -0.736,-1.248 -1.712,-2.368 -2.928,-3.36 -1.216,-0.992 -2.592,-1.984 -4.128,-2.976 -1.76,-1.216 -3.256,-2.256 -4.488,-3.12 -1.232,-0.864 -2.168,-1.752 -2.808,-2.664 -0.64,-0.912 -0.96,-2.008 -0.96,-3.288 0,-1.536 0.496,-2.736 1.488,-3.6 0.992,-0.864 2.256,-1.296 3.792,-1.296 1.696,0 3.128,0.504 4.296,1.512 1.168,1.008 2.072,2.296 2.712,3.864 0.64,1.568 1.024,3.184 1.152,4.848 v 0 h 1.104 c 0,-2.24 0.008,-4.048 0.024,-5.424 0.016,-1.376 0.048,-2.488 0.096,-3.336 0.048,-0.848 0.088,-1.576 0.12,-2.184 v 0 h -1.104 c -0.192,1.408 -0.544,2.112 -1.056,2.112 -0.224,0 -0.456,-0.056 -0.696,-0.168 -0.24,-0.112 -0.552,-0.28 -0.936,-0.504 -0.736,-0.448 -1.616,-0.872 -2.64,-1.272 -1.024,-0.4 -2.48,-0.6 -4.368,-0.6 -1.856,0 -3.608,0.312 -5.256,0.936 -1.648,0.624 -2.976,1.584 -3.984,2.88 -1.008,1.296 -1.512,2.952 -1.512,4.968 0,1.76 0.392,3.28 1.176,4.56 0.784,1.28 1.832,2.416 3.144,3.408 1.312,0.992 2.72,1.984 4.224,2.976 2.112,1.376 3.84,2.712 5.184,4.008 1.344,1.296 2.016,2.936 2.016,4.92 0,1.792 -0.576,3.136 -1.728,4.032 -1.152,0.896 -2.56,1.344 -4.224,1.344 -2.048,0 -3.688,-0.56 -4.92,-1.68 -1.232,-1.12 -2.144,-2.6 -2.736,-4.44 -0.592,-1.84 -0.952,-3.816 -1.08,-5.928 v 0 h -1.104 c 0,2.528 -0.008,4.616 -0.024,6.264 -0.016,1.648 -0.032,2.984 -0.048,4.008 -0.016,1.024 -0.056,1.92 -0.12,2.688 v 0 h 1.104 c 0.192,-1.408 0.544,-2.112 1.056,-2.112 0.384,0 0.928,0.224 1.632,0.672 0.8,0.416 1.792,0.816 2.976,1.2 1.184,0.384 2.768,0.576 4.752,0.576 z m 26.72631,0 c 1.792,0 3.328,-0.368 4.608,-1.104 1.28,-0.736 2.336,-1.68 3.168,-2.832 0.832,-1.152 1.44,-2.336 1.824,-3.552 v 0 l -0.864,-0.288 c -0.992,1.6 -2.056,2.64 -3.192,3.12 -1.136,0.48 -2.184,0.72 -3.144,0.72 -0.992,0 -1.968,-0.312 -2.928,-0.936 -0.96,-0.624 -1.752,-1.624 -2.376,-3 -0.624,-1.376 -0.936,-3.168 -0.936,-5.376 0,-0.448 0.008,-0.88 0.024,-1.296 0.016,-0.416 0.04,-0.816 0.072,-1.2 l -0.0183,0.24 h 13.45831 c 0,-3.636148 -0.74183,-6.29307 -2.22551,-7.970765 L 175.18231,29.008 c -1.6,-1.664 -3.808,-2.496 -6.624,-2.496 -2.272,0 -4.296,0.488 -6.072,1.464 -1.776,0.976 -3.168,2.456 -4.176,4.44 -1.008,1.984 -1.512,4.464 -1.512,7.44 0,2.912 0.472,5.312 1.416,7.2 0.944,1.888 2.248,3.296 3.912,4.224 1.664,0.928 3.584,1.392 5.76,1.392 z m -3.86536,-16.452476 c 0.179,-3.0449 0.64345,-5.240741 1.39336,-6.587524 0.784,-1.408 1.736,-2.112 2.856,-2.112 0.8,0 1.44,0.4 1.92,1.2 0.48,0.8 0.832,1.864 1.056,3.192 0.224,1.328 0.32,2.776 0.288,4.344 v 0 H 164.018 Z M 194.87192,52 v -1.008 c -1.504,0 -2.632,-0.272 -3.384,-0.816 -0.752,-0.544 -1.128,-1.584 -1.128,-3.12 v 0 -12.72 c 0,-0.864 0.192,-1.744 0.576,-2.64 0.384,-0.896 0.904,-1.672 1.56,-2.328 0.656,-0.656 1.4,-1.048 2.232,-1.176 0.448,-0.16 0.896,-0.176 1.344,-0.048 -0.608,0.416 -1.112,0.92 -1.512,1.512 -0.4,0.592 -0.6,1.336 -0.6,2.232 0,0.928 0.312,1.672 0.936,2.232 0.624,0.56 1.496,0.84 2.616,0.84 1.12,0 2.024,-0.376 2.712,-1.128 0.688,-0.752 1.032,-1.72 1.032,-2.904 0,-0.736 -0.152,-1.44 -0.456,-2.112 -0.304,-0.672 -0.776,-1.224 -1.416,-1.656 -0.64,-0.432 -1.472,-0.648 -2.496,-0.648 -1.024,0 -1.952,0.2 -2.784,0.6 -0.832,0.4 -1.568,0.952 -2.208,1.656 -0.64,0.704 -1.152,1.488 -1.536,2.352 v 0 -4.464 c -0.992,0.224 -2.072,0.392 -3.24,0.504 -1.168,0.112 -2.424,0.168 -3.768,0.168 -0.96,0 -1.952,-0.048 -2.976,-0.144 v 0 1.008 c 1.184,0 1.992,0.344 2.424,1.032 0.432,0.688 0.648,1.752 0.648,3.192 v 0 15.12 c 0,1.344 -0.232,2.256 -0.696,2.736 -0.464,0.48 -1.256,0.72 -2.376,0.72 v 0 V 52 c 0.672,-0.032 1.664,-0.072 2.976,-0.12 1.312,-0.048 2.608,-0.072 3.888,-0.072 1.536,0 3.008,0.024 4.416,0.072 1.408,0.048 2.48,0.088 3.216,0.12 z m 14.14076,-29.808 c 1.344,0 2.408,-0.328 3.192,-0.984 0.784,-0.656 1.176,-1.56 1.176,-2.712 0,-1.152 -0.392,-2.056 -1.176,-2.712 -0.784,-0.656 -1.848,-0.984 -3.192,-0.984 -1.344,0 -2.408,0.328 -3.192,0.984 -0.784,0.656 -1.176,1.56 -1.176,2.712 0,1.152 0.392,2.056 1.176,2.712 0.784,0.656 1.848,0.984 3.192,0.984 z m 6.816,29.808 v -1.008 c -1.12,0 -1.912,-0.24 -2.376,-0.72 -0.464,-0.48 -0.696,-1.392 -0.696,-2.736 v 0 -20.88 c -0.992,0.224 -2.072,0.392 -3.24,0.504 -1.168,0.112 -2.424,0.168 -3.768,0.168 -0.96,0 -1.952,-0.048 -2.976,-0.144 v 0 1.008 c 1.184,0 1.992,0.344 2.424,1.032 0.432,0.688 0.648,1.752 0.648,3.192 v 0 15.12 c 0,1.344 -0.232,2.256 -0.696,2.736 -0.464,0.48 -1.256,0.72 -2.376,0.72 v 0 V 52 c 0.64,-0.032 1.6,-0.072 2.88,-0.12 1.28,-0.048 2.544,-0.072 3.792,-0.072 1.248,0 2.48,0.024 3.696,0.072 1.216,0.048 2.112,0.088 2.688,0.12 z m 16.56955,0 v -1.008 c -1.408,0 -2.512,-0.264 -3.312,-0.792 -0.8,-0.528 -1.2,-1.576 -1.2,-3.144 v 0 -18.864 h 5.136 v -0.96 h -5.136 v -4.368 c 0,-1.888 0.064,-3.288 0.192,-4.2 0.128,-0.912 0.368,-1.608 0.72,-2.088 0.256,-0.384 0.592,-0.688 1.008,-0.912 0.416,-0.224 0.944,-0.336 1.584,-0.336 0.48,0 0.864,0.064 1.152,0.192 0.288,0.128 0.48,0.288 0.576,0.48 -0.928,0.256 -1.632,0.704 -2.112,1.344 -0.48,0.64 -0.72,1.376 -0.72,2.208 0,1.056 0.344,1.888 1.032,2.496 0.688,0.608 1.56,0.912 2.616,0.912 1.024,0 1.848,-0.336 2.472,-1.008 0.624,-0.672 0.936,-1.44 0.936,-2.304 0,-0.8 -0.16,-1.512 -0.48,-2.136 -0.32,-0.624 -0.704,-1.112 -1.152,-1.464 -0.64,-0.48 -1.376,-0.864 -2.208,-1.152 -0.832,-0.288 -1.808,-0.432 -2.928,-0.432 -1.344,0 -2.6,0.232 -3.768,0.696 -1.168,0.464 -2.104,1.032 -2.808,1.704 -1.12,1.088 -1.904,2.376 -2.352,3.864 -0.448,1.488 -0.672,3.656 -0.672,6.504 v 0 h -3.264 v 0.96 h 3.264 v 19.344 c 0,1.344 -0.232,2.256 -0.696,2.736 -0.464,0.48 -1.256,0.72 -2.376,0.72 v 0 V 52 c 0.608,-0.032 1.496,-0.072 2.664,-0.12 1.168,-0.048 2.36,-0.072 3.576,-0.072 1.664,0 3.248,0.024 4.752,0.072 1.504,0.048 2.672,0.088 3.504,0.12 z"
         inkscape:label="#Solutions"
         style="display:none">
        <title
           id="title2">Solutions</title>
      </path>
      <text
         xml:space="preserve"
         id="Solution"
         style="font-size:20px;line-height:0;font-family:Montserrat;-inkscape-font-specification:'Montserrat Bold Italic';text-align:center;white-space:pre;shape-inside:url(#rect8);display:inline;fill:#000000;fill-opacity:1;stroke:#000000;stroke-width:1.0000914;stroke-dasharray:none;font-weight:bold;font-style:italic;font-stretch:normal;font-variant:normal"
         inkscape:label="Solution"
         transform="matrix(1.0420537,0,0,2.2991771,117.49159,5.0196205)"><tspan
           x="14.580246"
           y="20.071324"
           id="tspan1">Solutions</tspan></text>
      <text
         xml:space="preserve"
         id="text7"
         style="font-size:20px;font-family:Lemonada;-inkscape-font-specification:Lemonada;text-align:center;white-space:pre;shape-inside:url(#rect7);fill:#000000;fill-opacity:1;stroke:#000000"
         inkscape:label="SingleTwin"
         transform="matrix(1.0821525,0,0,2.3698893,-5.723789,-25.60606)"><tspan
           x="5.5336914"
           y="32.571324"
           id="tspan3"><tspan
             style="font-style:italic;font-weight:800;font-family:Montserrat;-inkscape-font-specification:'Montserrat Ultra-Bold Italic'"
             id="tspan2">SingleTwin</tspan></tspan></text>
    </g>
  </g>
  <metadata
     id="metadata10">
    <rdf:RDF>
      <cc:Work
         rdf:about="">
        <dc:title>logo</dc:title>
      </cc:Work>
    </rdf:RDF>
  </metadata>
</svg>
