<svg width="616.9400146484375px" height="113.63999023437499px" xmlns="http://www.w3.org/2000/svg" viewBox="-58.47000732421873 18.180004882812504 616.9400146484375 113.63999023437499" style="background: rgb(253, 253, 253);" preserveAspectRatio="xMidYMid"><defs><filter id="editing-extrusion" x="-100%" y="-100%" width="300%" height="300%"><feFlood result="color1" flood-color="#bbcedd"></feFlood><feConvolveMatrix order="8,8" divisor="1" kernelMatrix="1 0 0 0 0 0 0 0 0 1 0 0 0 0 0 0 0 0 1 0 0 0 0 0 0 0 0 1 0 0 0 0 0 0 0 0 1 0 0 0 0 0 0 0 0 1 0 0 0 0 0 0 0 0 1 0 0 0 0 0 0 0 0 1" in="SourceAlpha" result="extrude"></feConvolveMatrix><feComposite in="color1" in2="extrude" result="comp-extrude" operator="in"></feComposite><feOffset dx="4" dy="4" in="comp-extrude" result="offset-extrude"></feOffset><feMerge><feMergeNode in="offset-extrude"></feMergeNode><feMergeNode in="SourceGraphic"></feMergeNode></feMerge></filter></defs><g filter="url(#editing-extrusion)"><g transform="translate(31.916768431663513, 94.75000190734863)"><path d="M16.17 0.69L16.17 0.69Q11.47 0.69 7.28-0.12L7.28-0.12L7.28-0.12Q3.09-0.93 0.83-1.96L0.83-1.96L0.83-11.66L11.61-11.66L11.61-11.66Q11.61-10.14 12.30-9.46L12.30-9.46L12.30-9.46Q12.99-8.77 14.80-8.77L14.80-8.77L14.80-8.77Q16.32-8.77 16.98-9.24L16.98-9.24L16.98-9.24Q17.64-9.70 17.64-10.63L17.64-10.63L17.64-10.63Q17.64-11.42 17.00-11.98L17.00-11.98L17.00-11.98Q16.37-12.54 14.80-13.13L14.80-13.13L10.58-14.60L10.58-14.60Q5.15-16.66 2.77-19.45L2.77-19.45L2.77-19.45Q0.39-22.25 0.39-27.00L0.39-27.00L0.39-27.00Q0.39-32.78 4.19-35.79L4.19-35.79L4.19-35.79Q7.99-38.81 16.86-38.81L16.86-38.81L16.86-38.81Q21.12-38.81 24.87-37.95L24.87-37.95L24.87-37.95Q28.62-37.09 30.92-35.67L30.92-35.67L30.92-26.90L21.12-26.90L21.12-26.90Q21.12-29.35 18.08-29.35L18.08-29.35L18.08-29.35Q16.61-29.35 16.00-28.98L16.00-28.98L16.00-28.98Q15.39-28.62 15.39-27.69L15.39-27.69L15.39-27.69Q15.39-26.85 16.10-26.36L16.10-26.36L16.10-26.36Q16.81-25.87 18.42-25.33L18.42-25.33L22.69-23.86L22.69-23.86Q27.88-22.10 30.26-19.28L30.26-19.28L30.26-19.28Q32.63-16.46 32.63-11.91L32.63-11.91L32.63-11.91Q32.63-5.68 28.44-2.50L28.44-2.50L28.44-2.50Q24.26 0.69 16.17 0.69L16.17 0.69ZM70.56-38.12L70.56-26.26L62.13-26.26L62.13-30.09L59.00-30.09L59.00-8.04L62.43-8.04L62.43 0L41.85 0L41.85-8.04L45.28-8.04L45.28-30.09L42.14-30.09L42.14-26.26L33.71-26.26L33.71-38.12L70.56-38.12ZM87.42 0.69L87.42 0.69Q82.71 0.69 78.52-0.12L78.52-0.12L78.52-0.12Q74.33-0.93 72.08-1.96L72.08-1.96L72.08-11.66L82.86-11.66L82.86-11.66Q82.86-10.14 83.55-9.46L83.55-9.46L83.55-9.46Q84.23-8.77 86.04-8.77L86.04-8.77L86.04-8.77Q87.56-8.77 88.22-9.24L88.22-9.24L88.22-9.24Q88.89-9.70 88.89-10.63L88.89-10.63L88.89-10.63Q88.89-11.42 88.25-11.98L88.25-11.98L88.25-11.98Q87.61-12.54 86.04-13.13L86.04-13.13L81.83-14.60L81.83-14.60Q76.39-16.66 74.01-19.45L74.01-19.45L74.01-19.45Q71.64-22.25 71.64-27.00L71.64-27.00L71.64-27.00Q71.64-32.78 75.44-35.79L75.44-35.79L75.44-35.79Q79.23-38.81 88.10-38.81L88.10-38.81L88.10-38.81Q92.37-38.81 96.11-37.95L96.11-37.95L96.11-37.95Q99.86-37.09 102.17-35.67L102.17-35.67L102.17-26.90L92.37-26.90L92.37-26.90Q92.37-29.35 89.33-29.35L89.33-29.35L89.33-29.35Q87.86-29.35 87.24-28.98L87.24-28.98L87.24-28.98Q86.63-28.62 86.63-27.69L86.63-27.69L86.63-27.69Q86.63-26.85 87.34-26.36L87.34-26.36L87.34-26.36Q88.05-25.87 89.67-25.33L89.67-25.33L93.93-23.86L93.93-23.86Q99.13-22.10 101.50-19.28L101.50-19.28L101.50-19.28Q103.88-16.46 103.88-11.91L103.88-11.91L103.88-11.91Q103.88-5.68 99.69-2.50L99.69-2.50L99.69-2.50Q95.50 0.69 87.42 0.69L87.42 0.69ZM138.57 0L119.95 0L119.95-8.04L122.40-8.04L122.40-30.09L119.95-30.09L119.95-38.12L138.57-38.12L138.57-30.09L136.12-30.09L136.12-8.04L138.57-8.04L138.57 0ZM177.09-38.12L177.09-26.26L168.66-26.26L168.66-30.09L165.52-30.09L165.52-8.04L168.95-8.04L168.95 0L148.37 0L148.37-8.04L151.80-8.04L151.80-30.09L148.67-30.09L148.67-26.26L140.24-26.26L140.24-38.12L177.09-38.12ZM208.64 0.69L208.64 0.69Q203.94 0.69 199.75-0.12L199.75-0.12L199.75-0.12Q195.56-0.93 193.31-1.96L193.31-1.96L193.31-11.66L204.09-11.66L204.09-11.66Q204.09-10.14 204.77-9.46L204.77-9.46L204.77-9.46Q205.46-8.77 207.27-8.77L207.27-8.77L207.27-8.77Q208.79-8.77 209.45-9.24L209.45-9.24L209.45-9.24Q210.11-9.70 210.11-10.63L210.11-10.63L210.11-10.63Q210.11-11.42 209.48-11.98L209.48-11.98L209.48-11.98Q208.84-12.54 207.27-13.13L207.27-13.13L203.06-14.60L203.06-14.60Q197.62-16.66 195.24-19.45L195.24-19.45L195.24-19.45Q192.86-22.25 192.86-27.00L192.86-27.00L192.86-27.00Q192.86-32.78 196.66-35.79L196.66-35.79L196.66-35.79Q200.46-38.81 209.33-38.81L209.33-38.81L209.33-38.81Q213.59-38.81 217.34-37.95L217.34-37.95L217.34-37.95Q221.09-37.09 223.39-35.67L223.39-35.67L223.39-26.90L213.59-26.90L213.59-26.90Q213.59-29.35 210.55-29.35L210.55-29.35L210.55-29.35Q209.08-29.35 208.47-28.98L208.47-28.98L208.47-28.98Q207.86-28.62 207.86-27.69L207.86-27.69L207.86-27.69Q207.86-26.85 208.57-26.36L208.57-26.36L208.57-26.36Q209.28-25.87 210.90-25.33L210.90-25.33L215.16-23.86L215.16-23.86Q220.35-22.10 222.73-19.28L222.73-19.28L222.73-19.28Q225.11-16.46 225.11-11.91L225.11-11.91L225.11-11.91Q225.11-5.68 220.92-2.50L220.92-2.50L220.92-2.50Q216.73 0.69 208.64 0.69L208.64 0.69ZM240.98 0.69L240.98 0.69Q234.02 0.69 230.10-2.96L230.10-2.96L230.10-2.96Q226.18-6.62 226.18-13.62L226.18-13.62L226.18-13.62Q226.18-20.63 230.10-24.28L230.10-24.28L230.10-24.28Q234.02-27.93 240.98-27.93L240.98-27.93L240.98-27.93Q248.04-27.93 251.91-24.23L251.91-24.23L251.91-24.23Q255.78-20.53 255.78-13.62L255.78-13.62L255.78-13.62Q255.78-6.62 251.86-2.96L251.86-2.96L251.86-2.96Q247.94 0.69 240.98 0.69L240.98 0.69ZM240.98-8.04L240.98-8.04Q242.40-8.04 243.11-8.80L243.11-8.80L243.11-8.80Q243.82-9.55 243.82-11.17L243.82-11.17L243.82-16.07L243.82-16.07Q243.82-17.69 243.11-18.45L243.11-18.45L243.11-18.45Q242.40-19.21 240.98-19.21L240.98-19.21L240.98-19.21Q239.56-19.21 238.85-18.45L238.85-18.45L238.85-18.45Q238.14-17.69 238.14-16.07L238.14-16.07L238.14-11.17L238.14-11.17Q238.14-9.55 238.85-8.80L238.85-8.80L238.85-8.80Q239.56-8.04 240.98-8.04L240.98-8.04ZM272.93 0.05L257.35 0.05L257.35-8.04L259.50-8.04L259.50-30.09L257.35-30.09L257.35-38.12L270.77-38.12L270.77-8.04L272.93-8.04L272.93 0.05ZM304.58-8.04L306.74-8.04L306.74 0L293.31 0L293.31-3.82L293.31-3.82Q289.79 0.69 284.49 0.69L284.49 0.69L284.49 0.69Q280.43 0.69 278.39-1.86L278.39-1.86L278.39-1.86Q276.36-4.41 276.36-8.87L276.36-8.87L276.36-19.21L274.20-19.21L274.20-27.24L287.63-27.24L287.63-11.17L287.63-11.17Q287.63-9.55 288.34-8.80L288.34-8.80L288.34-8.80Q289.05-8.04 290.47-8.04L290.47-8.04L290.47-8.04Q291.89-8.04 292.60-8.80L292.60-8.80L292.60-8.80Q293.31-9.55 293.31-11.17L293.31-11.17L293.31-19.21L290.67-19.21L290.67-27.24L304.58-27.24L304.58-8.04ZM320.22 0.69L320.22 0.69Q315.02 0.69 312.40-1.84L312.40-1.84L312.40-1.84Q309.78-4.36 309.78-10.34L309.78-10.34L309.78-19.21L307.62-19.21L307.62-27.24L307.62-27.24Q309.48-27.24 310.42-28.20L310.42-28.20L310.42-28.20Q311.35-29.16 311.35-30.82L311.35-30.82L311.35-33.03L321.73-33.03L321.73-27.24L328.35-27.24L328.35-19.21L321.73-19.21L321.73-11.17L321.73-11.17Q321.73-9.55 322.44-8.80L322.44-8.80L322.44-8.80Q323.16-8.04 324.58-8.04L324.58-8.04L324.58-8.04Q326.44-8.04 328.64-8.48L328.64-8.48L328.64-0.78L328.64-0.78Q327.27-0.24 324.94 0.22L324.94 0.22L324.94 0.22Q322.62 0.69 320.22 0.69L320.22 0.69ZM342.56-29.94L332.56-29.94L332.56-38.12L342.56-38.12L342.56-29.94ZM345.79 0L330.21 0L330.21-8.04L332.37-8.04L332.37-19.21L330.21-19.21L330.21-27.24L343.64-27.24L343.64-8.04L345.79-8.04L345.79 0ZM361.77 0.69L361.77 0.69Q354.81 0.69 350.89-2.96L350.89-2.96L350.89-2.96Q346.97-6.62 346.97-13.62L346.97-13.62L346.97-13.62Q346.97-20.63 350.89-24.28L350.89-24.28L350.89-24.28Q354.81-27.93 361.77-27.93L361.77-27.93L361.77-27.93Q368.82-27.93 372.69-24.23L372.69-24.23L372.69-24.23Q376.56-20.53 376.56-13.62L376.56-13.62L376.56-13.62Q376.56-6.62 372.65-2.96L372.65-2.96L372.65-2.96Q368.73 0.69 361.77 0.69L361.77 0.69ZM361.77-8.04L361.77-8.04Q363.19-8.04 363.90-8.80L363.90-8.80L363.90-8.80Q364.61-9.55 364.61-11.17L364.61-11.17L364.61-16.07L364.61-16.07Q364.61-17.69 363.90-18.45L363.90-18.45L363.90-18.45Q363.19-19.21 361.77-19.21L361.77-19.21L361.77-19.21Q360.35-19.21 359.64-18.45L359.64-18.45L359.64-18.45Q358.93-17.69 358.93-16.07L358.93-16.07L358.93-11.17L358.93-11.17Q358.93-9.55 359.64-8.80L359.64-8.80L359.64-8.80Q360.35-8.04 361.77-8.04L361.77-8.04ZM408.51-8.04L410.67-8.04L410.67 0L395.19 0L395.19-8.04L397.24-8.04L397.24-16.07L397.24-16.07Q397.24-17.69 396.56-18.45L396.56-18.45L396.56-18.45Q395.87-19.21 394.50-19.21L394.50-19.21L394.50-19.21Q391.56-19.21 391.56-16.07L391.56-16.07L391.56-8.04L393.62-8.04L393.62 0L378.13 0L378.13-8.04L380.29-8.04L380.29-19.21L378.13-19.21L378.13-27.24L391.56-27.24L391.56-23.42L391.56-23.42Q395.09-27.93 400.38-27.93L400.38-27.93L400.38-27.93Q404.45-27.93 406.48-25.38L406.48-25.38L406.48-25.38Q408.51-22.83 408.51-18.38L408.51-18.38L408.51-8.04ZM424.14 0.69L424.14 0.69Q417.97 0.69 412.24-1.27L412.24-1.27L412.24-8.53L420.18-8.53L420.18-8.04L420.18-8.04Q420.18-5.68 423.16-5.68L423.16-5.68L423.16-5.68Q425.81-5.68 425.81-7.50L425.81-7.50L425.81-7.50Q425.81-8.48 425.05-8.97L425.05-8.97L425.05-8.97Q424.29-9.46 422.38-9.80L422.38-9.80L419.93-10.24L419.93-10.24Q412.24-11.61 412.24-18.96L412.24-18.96L412.24-18.96Q412.24-23.23 415.47-25.58L415.47-25.58L415.47-25.58Q418.71-27.93 424.19-27.93L424.19-27.93L424.19-27.93Q430.32-27.93 434.53-25.87L434.53-25.87L434.53-19.06L427.08-19.06L427.08-19.55L427.08-19.55Q427.08-20.53 426.42-21.05L426.42-21.05L426.42-21.05Q425.76-21.56 424.49-21.56L424.49-21.56L424.49-21.56Q422.04-21.56 422.04-19.99L422.04-19.99L422.04-19.99Q422.04-19.16 422.72-18.72L422.72-18.72L422.72-18.72Q423.41-18.28 425.22-17.89L425.22-17.89L428.02-17.35L428.02-17.35Q432.38-16.51 434.24-14.26L434.24-14.26L434.24-14.26Q436.10-12.01 436.10-8.48L436.10-8.48L436.10-8.48Q436.10-4.02 432.99-1.67L432.99-1.67L432.99-1.67Q429.88 0.69 424.14 0.69L424.14 0.69Z" fill="#000000"></path></g></g><style>text {
  font-size: 64px;
  font-family: Arial Black;
  dominant-baseline: central;
  text-anchor: middle;
}</style></svg>