<?xml version="1.0" standalone="no"?>
<!DOCTYPE svg PUBLIC "-//W3C//DTD SVG 20010904//EN"
 "http://www.w3.org/TR/2001/REC-SVG-20010904/DTD/svg10.dtd">
<svg version="1.0" xmlns="http://www.w3.org/2000/svg"
 width="848.000000pt" height="848.000000pt" viewBox="0 0 848.000000 848.000000"
 preserveAspectRatio="xMidYMid meet">
<metadata>
Created by potrace 1.14, written by Peter Selinger 2001-2017
</metadata>
<g transform="translate(0.000000,848.000000) scale(0.100000,-0.100000)"
fill="#000000" stroke="none">
<path d="M3775 7476 c-77 -45 -261 -152 -410 -238 -330 -191 -709 -409 -752
-434 -32 -19 -241 -139 -278 -160 -149 -84 -1143 -659 -1150 -666 -7 -6 -10
-552 -10 -1599 l-1 -1589 91 -52 c49 -28 104 -59 120 -68 17 -10 145 -84 285
-165 528 -305 716 -414 765 -441 28 -15 77 -44 110 -64 33 -20 85 -50 115 -67
30 -17 324 -187 654 -377 329 -190 602 -346 606 -346 6 0 442 249 490 279 8 6
31 19 50 29 19 11 379 218 800 462 421 243 781 451 800 462 19 11 163 94 320
185 l285 164 0 1592 0 1591 -85 49 c-47 27 -103 59 -125 71 -22 13 -98 57
-170 98 -71 42 -146 85 -165 96 -19 10 -147 85 -285 164 -137 80 -308 179
-380 220 -71 41 -173 100 -226 131 -53 30 -111 64 -130 74 -19 10 -77 44 -129
74 -90 53 -715 414 -790 457 -19 10 -86 49 -149 86 -62 36 -114 66 -115 65 0
0 -64 -38 -141 -83z m387 -244 c123 -71 243 -140 268 -154 41 -23 224 -129
729 -422 101 -58 188 -106 192 -106 5 0 9 -4 9 -10 0 -5 5 -10 11 -10 6 0 49
-23 97 -51 48 -29 105 -62 127 -74 22 -13 81 -47 130 -75 50 -29 115 -66 145
-83 30 -16 66 -38 80 -47 14 -9 50 -31 80 -47 193 -106 409 -238 403 -244 -5
-5 -123 -75 -263 -157 l-254 -148 -110 64 c-61 36 -131 76 -156 90 -25 14
-130 75 -235 135 -104 61 -219 127 -255 147 -36 20 -227 130 -425 245 -198
114 -385 221 -415 238 -30 17 -68 39 -85 49 -16 10 -32 18 -35 18 -3 0 -5
-1133 -5 -2517 l0 -2518 -65 -39 c-36 -21 -97 -58 -137 -81 l-71 -42 -134 76
-133 77 -3 2526 -2 2527 -218 -125 c-119 -70 -327 -189 -462 -266 -135 -77
-265 -153 -290 -168 -25 -15 -65 -39 -90 -52 -25 -14 -184 -105 -354 -203
l-308 -178 -42 21 c-66 34 -121 66 -124 75 -2 4 -8 7 -14 7 -6 0 -47 22 -92
49 -44 27 -103 61 -131 77 -84 46 -141 84 -127 84 7 0 45 19 85 43 39 24 137
81 217 127 80 46 186 107 235 136 116 68 1157 669 1210 699 22 13 123 71 225
130 102 59 203 118 225 130 22 13 103 59 180 104 77 45 145 79 152 76 7 -2
113 -62 235 -133z m783 -1334 c182 -105 344 -198 360 -208 17 -9 107 -61 200
-115 94 -54 184 -106 200 -115 l30 -17 3 -332 2 -331 -262 2 -263 3 0 167 c0
97 -4 171 -10 176 -11 10 -344 202 -350 202 -2 0 -3 -153 -4 -339 l0 -340 402
0 c221 0 420 0 443 -1 l41 0 0 -663 0 -663 -231 -134 c-771 -446 -1167 -674
-1178 -678 -4 -2 -8 329 -8 735 l0 738 242 -2 c134 -1 250 -2 259 -2 14 -1 16
-30 17 -263 0 -145 1 -271 1 -280 1 -12 45 9 179 87 l177 103 3 241 2 241 -27
1 c-16 0 -214 1 -440 1 l-413 0 0 1073 0 1073 148 -85 c81 -47 296 -171 477
-275z m-1428 -383 l0 -735 -259 0 -258 0 -2 280 -3 280 -175 -102 c-96 -56
-177 -103 -179 -105 -10 -8 -4 -465 6 -471 6 -4 197 -6 425 -5 227 0 421 -1
431 -4 16 -4 17 -64 17 -1074 0 -588 -2 -1069 -4 -1069 -3 0 -214 121 -806
462 -124 72 -312 180 -417 241 l-193 111 0 328 0 328 264 0 265 0 -1 -170 c0
-94 1 -172 3 -174 3 -2 331 -192 351 -203 4 -2 6 148 5 334 l-2 338 -430 1
c-236 1 -434 2 -440 3 -10 1 -15 1325 -5 1334 3 3 122 72 265 155 143 82 276
159 295 171 19 11 51 29 70 40 19 10 172 99 340 196 333 194 422 244 431 245
3 0 6 -331 6 -735z m-1734 28 l77 -45 0 -1151 1 -1152 271 -155 c149 -85 307
-177 352 -203 44 -27 108 -64 141 -82 57 -31 684 -393 830 -479 l70 -41 0
-307 0 -307 -55 31 c-30 17 -71 40 -90 51 -19 10 -39 23 -45 27 -5 4 -30 19
-55 32 -58 33 -598 344 -715 413 -80 47 -853 493 -1122 648 -64 36 -103 65
-104 75 -1 21 -1 2787 0 2854 l1 47 183 -106 c100 -58 217 -125 260 -150z
m4721 -1204 c-1 -827 -5 -1454 -10 -1458 -5 -4 -187 -110 -404 -235 -217 -126
-424 -245 -460 -266 -36 -21 -249 -145 -475 -275 -225 -130 -482 -279 -570
-329 -229 -133 -254 -146 -258 -138 -3 4 -4 141 -4 305 l0 298 66 38 c36 22
84 49 106 61 22 12 182 105 355 205 173 100 359 208 413 239 53 31 141 81 195
113 53 31 112 65 131 75 18 10 111 64 207 119 155 90 174 104 175 128 0 14 1
532 2 1151 l2 1125 185 108 c102 59 211 120 242 137 31 16 59 34 63 40 3 5 14
10 23 10 16 0 17 -95 16 -1451z"/>
<path d="M8463 468 c-11 -19 -13 -39 -1 -32 5 3 7 9 4 12 -3 3 -1 11 5 19 6 7
9 13 6 13 -3 0 -9 -6 -14 -12z"/>
</g>
</svg>
