<?xml version="1.0" standalone="no"?>
<!DOCTYPE svg PUBLIC "-//W3C//DTD SVG 20010904//EN"
 "http://www.w3.org/TR/2001/REC-SVG-20010904/DTD/svg10.dtd">
<svg version="1.0" xmlns="http://www.w3.org/2000/svg"
 width="2000.000000pt" height="2588.000000pt" viewBox="0 0 2000.000000 2588.000000"
 preserveAspectRatio="xMidYMid meet">

<g transform="translate(0.000000,2588.000000) scale(0.100000,-0.100000)"
fill="#000000" stroke="none">
<path d="M8625 17666 l-1370 -792 -3 -1590 -2 -1591 1367 -789 c752 -434 1375
-789 1383 -789 9 0 631 355 1383 789 l1367 790 -2 1590 -3 1590 -1374 793
c-756 436 -1375 793 -1375 792 -1 0 -617 -357 -1371 -793z m2637 -123 c692
-399 1255 -730 1251 -734 -25 -24 -511 -299 -523 -296 -9 2 -392 221 -852 485
-459 265 -843 484 -852 488 -15 6 -16 -192 -16 -2515 l0 -2520 -127 -76 c-71
-41 -135 -75 -143 -74 -8 0 -71 33 -140 73 l-125 72 -5 2525 -5 2525 -855
-493 c-470 -271 -862 -491 -871 -489 -21 5 -518 289 -519 297 0 5 2510 1459
2519 1459 2 0 571 -327 1263 -727z m-1662 -1128 l0 -735 -260 0 -260 0 -2 280
-3 279 -177 -102 -178 -102 0 -237 0 -238 424 0 c233 0 431 -3 440 -6 14 -6
16 -110 16 -1076 0 -588 -4 -1068 -9 -1066 -4 2 -324 185 -710 408 l-701 404
0 328 0 328 265 0 265 0 0 -172 1 -173 177 -102 177 -102 3 327 c1 180 0 333
-3 339 -3 10 -99 13 -440 13 l-435 0 0 668 0 667 697 403 c384 221 701 402
705 402 5 0 8 -331 8 -735z m1515 331 l700 -403 3 -332 2 -331 -260 0 -260 0
-2 172 -3 172 -175 102 c-96 57 -178 103 -182 103 -5 1 -8 -152 -8 -339 l0
-340 445 0 445 0 0 -662 0 -663 -702 -405 c-386 -223 -705 -406 -710 -408 -4
-2 -8 327 -8 732 l0 736 260 0 260 0 0 -275 c0 -151 3 -275 8 -275 4 0 84 45
177 99 l170 99 3 241 2 241 -440 0 -440 0 0 1070 c0 589 3 1070 8 1070 4 0
322 -182 707 -404z m-3352 -245 l177 -103 0 -1151 1 -1152 827 -477 827 -476
3 -306 c1 -168 0 -306 -4 -306 -3 0 -494 282 -1090 626 l-1084 626 0 1459 0
1459 83 -49 c45 -26 162 -94 260 -150z m4817 -1265 l0 -1453 -1084 -627 c-596
-344 -1086 -626 -1090 -626 -3 0 -5 138 -4 306 l3 306 820 474 820 473 5 1153
5 1153 255 147 c140 81 258 148 263 148 4 0 7 -654 7 -1454z"/>
<path d="M4842 11512 c-99 -36 -150 -115 -139 -214 13 -105 105 -180 224 -181
151 -1 242 79 243 214 0 111 -82 187 -213 195 -44 3 -77 -1 -115 -14z"/>
<path d="M14678 11518 c-42 -11 -112 -68 -132 -107 -52 -103 -3 -230 108 -276
57 -24 161 -23 216 2 74 33 130 113 130 188 0 141 -159 237 -322 193z"/>
<path d="M8842 10648 l3 -753 193 -3 192 -2 0 755 0 755 -195 0 -195 0 2 -752z"/>
<path d="M3670 11339 c-320 -36 -519 -232 -497 -491 10 -118 68 -214 165 -277
69 -44 165 -77 349 -122 195 -47 235 -62 268 -101 61 -72 5 -140 -134 -159
-132 -19 -315 17 -465 93 -43 22 -79 38 -80 36 -1 -2 -31 -68 -66 -147 -73
-165 -76 -150 35 -201 288 -133 717 -133 924 0 226 145 277 442 106 613 -79
80 -183 122 -442 181 -218 50 -273 84 -259 161 23 121 287 141 521 39 44 -20
85 -37 90 -40 6 -2 38 64 71 146 l62 151 -59 30 c-78 39 -220 76 -339 89 -108
11 -144 11 -250 -1z"/>
<path d="M10880 11160 l0 -160 220 0 220 0 0 -555 0 -555 200 0 200 0 0 555 0
555 220 0 221 0 -3 158 -3 157 -637 3 -638 2 0 -160z"/>
<path d="M6205 11009 c-84 -14 -144 -41 -232 -105 l-23 -16 0 56 0 56 -185 0
-185 0 0 -555 0 -555 193 2 192 3 5 320 c5 340 7 349 59 409 59 67 208 80 269
23 56 -52 57 -56 62 -417 l5 -335 193 -3 192 -2 0 362 c0 395 -5 438 -57 545
-78 159 -279 247 -488 212z"/>
<path d="M7599 11009 c-261 -38 -437 -226 -456 -484 -20 -294 165 -521 463
-567 128 -20 269 13 357 83 l37 30 0 -49 c0 -59 -15 -106 -47 -150 -85 -114
-359 -115 -559 -2 l-53 29 -69 -132 c-45 -84 -67 -136 -61 -143 17 -20 164
-83 244 -105 61 -16 120 -22 250 -26 150 -5 181 -3 259 16 225 54 366 193 411
407 12 55 15 170 15 577 l0 507 -185 0 -185 0 0 -61 0 -61 -41 37 c-55 50
-129 82 -214 95 -79 11 -88 11 -166 -1z m292 -329 c124 -64 158 -232 67 -336
-51 -58 -101 -79 -188 -78 -78 0 -121 15 -168 58 -94 84 -86 256 14 332 71 55
193 65 275 24z"/>
<path d="M10095 11006 c-312 -61 -502 -295 -482 -595 16 -241 158 -418 402
-497 64 -21 106 -27 210 -31 201 -7 331 29 452 126 l53 43 -102 109 c-97 104
-102 108 -122 94 -71 -52 -121 -69 -212 -73 -69 -3 -105 0 -142 12 -57 19
-124 80 -141 126 l-10 30 398 0 399 0 6 53 c8 63 -7 178 -34 253 -74 211 -266
344 -517 358 -55 4 -115 0 -158 -8z m237 -298 c45 -25 93 -85 104 -130 l6 -28
-221 0 c-246 0 -238 -3 -202 69 24 46 82 99 119 107 15 3 32 8 37 10 25 10
119 -7 157 -28z"/>
<path d="M16013 11005 c-78 -17 -147 -48 -195 -86 l-37 -29 -3 52 -3 53 -185
0 -185 0 0 -550 0 -550 192 -3 191 -2 4 312 c4 342 6 358 66 421 42 45 79 60
148 60 82 0 121 -23 154 -88 25 -50 25 -51 28 -378 l3 -327 192 2 192 3 0 365
c0 312 -3 374 -17 427 -40 144 -100 223 -211 278 -109 52 -216 65 -334 40z"/>
<path d="M4742 10448 l3 -553 193 -3 192 -2 0 555 0 555 -195 0 -195 0 2 -552z"/>
<path d="M12300 10992 c0 -4 87 -253 194 -552 l194 -545 187 0 188 0 105 293
c58 161 108 289 112 285 4 -4 47 -125 95 -268 49 -143 94 -272 102 -287 l14
-28 179 0 c163 0 180 2 189 18 9 16 175 480 337 940 l54 152 -172 -2 -171 -3
-113 -323 c-61 -178 -114 -325 -117 -328 -3 -3 -33 79 -67 183 -35 103 -85
252 -113 331 l-49 142 -165 -2 -165 -3 -89 -255 c-49 -140 -101 -288 -116
-329 l-26 -75 -111 330 -111 329 -182 3 c-101 1 -183 -1 -183 -6z"/>
<path d="M14570 10445 l0 -555 193 2 192 3 0 550 0 550 -192 3 -193 2 0 -555z"/>
<path d="M6935 9076 c-120 -30 -212 -105 -239 -197 -20 -65 -20 -92 -1 -155
33 -111 140 -184 340 -230 133 -31 183 -48 227 -77 96 -66 107 -199 21 -267
-66 -52 -188 -73 -294 -51 -134 28 -209 108 -209 224 l0 58 -57 -3 -58 -3 -3
-184 c-3 -201 -3 -201 55 -201 46 0 63 9 63 35 0 35 13 37 61 11 83 -45 148
-61 249 -60 162 0 281 55 345 159 25 41 31 61 34 126 8 179 -84 263 -362 333
-227 57 -289 103 -289 213 0 182 352 223 480 55 22 -28 28 -49 32 -106 l5 -71
58 -3 57 -3 0 191 0 191 -57 -3 c-55 -3 -58 -4 -61 -30 -2 -16 -5 -28 -6 -28
-2 0 -29 13 -62 29 -61 31 -189 62 -246 60 -18 0 -55 -6 -83 -13z"/>
<path d="M10883 9076 c-94 -42 -73 -186 29 -202 103 -17 164 108 89 180 -34
32 -77 40 -118 22z"/>
<path d="M8442 9058 c-7 -7 -12 -29 -12 -50 0 -50 18 -58 129 -58 l91 0 0
-420 0 -420 -98 0 c-63 0 -102 -4 -110 -12 -20 -20 -15 -86 7 -98 24 -12 510
-14 529 -1 9 5 12 25 10 57 l-3 49 -102 3 -103 3 0 473 c0 423 -2 475 -16 480
-31 12 -309 7 -322 -6z"/>
<path d="M10118 8900 c-4 -148 -5 -150 -118 -150 -46 0 -81 -5 -88 -12 -16
-16 -15 -85 1 -95 6 -4 55 -10 107 -13 l95 -5 5 -240 c6 -265 9 -283 71 -342
48 -45 101 -65 179 -65 111 0 190 46 234 134 14 28 26 67 26 85 l0 33 -65 0
c-62 0 -65 -1 -65 -24 0 -39 -42 -90 -86 -105 -50 -17 -84 -10 -127 28 l-32
29 -3 236 -3 236 131 0 c72 0 140 5 151 10 22 12 27 78 7 98 -8 8 -56 12 -150
12 l-137 0 -3 133 -3 132 -62 3 -61 3 -4 -121z"/>
<path d="M7903 8755 c-108 -30 -186 -86 -241 -173 -167 -263 22 -605 333 -605
324 0 511 372 316 629 -95 126 -267 189 -408 149z m205 -136 c202 -100 199
-404 -4 -505 -27 -13 -60 -19 -109 -19 -81 0 -129 19 -183 73 -66 67 -95 175
-72 271 41 173 214 258 368 180z"/>
<path d="M11561 8754 c-123 -33 -229 -123 -273 -232 -19 -46 -23 -76 -23 -157
0 -92 2 -105 32 -166 76 -156 260 -252 419 -221 163 33 279 140 320 297 58
217 -88 442 -316 485 -68 13 -93 12 -159 -6z m194 -128 c56 -26 116 -87 141
-143 11 -24 17 -65 17 -113 1 -121 -54 -208 -162 -258 -109 -50 -239 -11 -308
92 -42 62 -56 116 -50 192 15 189 200 306 362 230z"/>
<path d="M12597 8760 c-52 -14 -90 -34 -126 -70 -36 -37 -51 -32 -51 16 l0 35
-137 -3 -138 -3 -3 -44 c-4 -55 5 -61 86 -61 l62 0 0 -260 0 -260 -59 0 c-83
0 -91 -5 -91 -54 0 -23 5 -47 12 -54 14 -14 384 -17 406 -3 9 5 12 25 10 57
l-3 49 -70 5 -70 5 0 170 c1 156 3 174 24 222 43 96 127 150 221 141 58 -6
104 -37 130 -88 18 -36 20 -60 20 -294 0 -242 1 -256 19 -266 11 -5 68 -10
126 -10 128 0 145 7 145 58 0 52 -14 62 -86 62 l-62 0 -4 213 c-4 189 -7 218
-27 269 -49 125 -200 201 -334 168z"/>
<path d="M13415 8755 c-27 -8 -53 -14 -57 -15 -5 0 -27 -17 -50 -37 -129 -117
-92 -278 79 -343 26 -10 91 -27 144 -39 117 -25 147 -36 177 -63 26 -25 30
-82 7 -115 -24 -34 -96 -57 -163 -50 -106 9 -181 65 -213 159 l-18 53 -53 0
-53 0 -3 -149 c-3 -163 -2 -166 55 -166 46 0 63 9 63 34 0 34 9 36 46 11 82
-56 227 -76 319 -45 122 41 187 141 163 253 -20 97 -106 153 -295 193 -128 27
-165 43 -189 80 -22 32 -9 79 29 108 23 17 43 21 105 21 67 0 84 -4 125 -28
30 -18 59 -46 77 -75 42 -67 47 -72 83 -72 56 0 58 4 55 146 l-3 129 -37 3
c-46 4 -78 -12 -78 -39 0 -11 -3 -19 -7 -17 -5 2 -37 18 -73 36 -79 39 -161
49 -235 27z"/>
<path d="M8962 8738 c-7 -7 -12 -29 -12 -50 0 -46 19 -58 93 -58 l55 0 4 -212
c5 -253 16 -295 96 -371 58 -53 106 -71 192 -71 84 0 133 17 186 66 48 44 64
43 64 -7 0 -21 6 -35 16 -39 30 -12 239 -7 252 6 7 7 12 28 12 48 0 50 -14 60
-87 60 l-63 0 0 309 c0 251 -3 311 -14 320 -9 8 -55 11 -137 9 l-124 -3 -3
-52 c-3 -59 -2 -60 93 -65 l50 -3 -1 -170 c0 -155 -2 -175 -23 -222 -43 -97
-127 -150 -223 -141 -52 5 -89 27 -122 72 -20 26 -21 43 -24 294 -2 171 -7
271 -14 279 -14 18 -249 18 -266 1z"/>
<path d="M10683 8743 c-20 -7 -17 -99 3 -107 9 -3 56 -6 105 -6 l89 0 0 -260
0 -260 -89 0 c-118 0 -121 -2 -121 -60 0 -34 4 -50 16 -54 9 -3 127 -6 264 -6
137 0 255 3 264 6 12 4 16 20 16 54 0 58 -3 60 -121 60 l-89 0 0 308 c0 226
-3 311 -12 320 -12 12 -297 17 -325 5z"/>
</g>
</svg>
